<svg xmlns="http://www.w3.org/2000/svg" id="svg1" width="100" height="100" viewBox="0 0 26.45833 26.45833">
	<g id="layer1">
		<path id="path1" fill="none" stroke="#36f" stroke-width="3.96875" />
		<path id="path2" fill="#36f" stroke="none" stroke-width=".26458" />
		<path id="path3" fill="none" stroke="#36f" stroke-width="3.96875" d="M13.22917 13.22917h12.96458" />
		<path id="path4" fill="#36f" stroke="none" stroke-width=".26458" d="M13.22917 17.19792c-2.19188 0-3.96875-1.77687-3.96875-3.96875s1.77687-3.96875 3.96875-3.96875 3.96875 1.77687 3.96875 3.96875-1.77687 3.96875-3.96875 3.96875" />
		<path id="path5" fill="none" stroke="#fff" stroke-width="0" d="M-.00084 26.4575V-.00085h26.45833v26.45833Z" />
		<path id="path2-1" stroke="#36f" stroke-width="3.96875" d="M13.22912 26.19388s0-.54296-.14055-1.0675c-.14054-.52453-.412-.99475-.412-.99475s-1.18433-2.05131-1.18433-4.42013c0-2.3688 1.73688-6.48229 1.73688-6.48229S14.966 9.11574 14.966 6.74692 13.78168 2.3268 13.78168 2.3268s-.27144-.47013-.41201-.99475c-.14058-.52462-.14055-1.06749-.14055-1.06749" />
		<path id="path3-9" fill="#dd5" stroke="none" stroke-width=".26458" d="M13.3073 16.61458c-1.82657 0-3.3073-1.48072-3.3073-3.30729S11.48072 10 13.3073 10c1.82656 0 3.30728 1.48073 3.30728 3.3073 0 1.82656-1.48072 3.30728-3.30729 3.30728" style="fill:#ddd;fill-opacity:1" />
	</g>
</svg>
